<svg xmlns="http://www.w3.org/2000/svg" viewBox="0 0 941 921"><defs><style>.cls-1{fill:#fff;}</style></defs><title>censurfri_dns_logo_negative</title><g id="Layer_9" data-name="Layer 9"><path class="cls-1" d="M561.62,622c-4.43,9.07-11.57,24.05-16.12,28.47a57.3,57.3,0,0,1-9.17,7.38l341.26,57.82a12.5,12.5,0,0,1,8.63,5.89l63,105a12.5,12.5,0,0,1-21.44,12.86l-52.22-87-55.48,88.26a12.5,12.5,0,0,1-21.17-13.3l56.61-90.05L653.91,703.13l38.58,13a12.5,12.5,0,0,1,6.81,5.56l60.9,104.82,59.89,95.83a12.5,12.5,0,1,1-21.2,13.25l-60-96-.21-.35L680.05,738.34,512.5,681.79v42.75l61.22,102c0,.07.07.15.11.22.15.27.3.53.44.81l46,96a12.5,12.5,0,1,1-22.54,10.8L563,861.93,528.27,934.4a12.5,12.5,0,1,1-22.54-10.8l43.09-89.93-48.65-81.08L450,838.95l-47.82,95.64a12.5,12.5,0,1,1-22.36-11.18l48-96c.06-.11.13-.22.19-.33s.12-.24.19-.36L487.5,724.63V682L330.71,734.88l55,91.69a12.5,12.5,0,1,1-21.44,12.86l-52.11-86.85-46.39,79.85,61.52,89.48a12.5,12.5,0,1,1-20.6,14.16l-55.2-80.29-49.9,79.84a12.5,12.5,0,0,1-21.2-13.25l59.89-95.83,60.9-104.82v0c.11-.2.25-.39.37-.58s.17-.27.26-.4.27-.36.42-.53l.31-.38c.14-.16.29-.31.44-.47l.38-.39.44-.4.48-.4.43-.32.59-.39.25-.17.17-.09.64-.34.44-.22.62-.25.51-.2,0,0,38.59-13L132.76,739.36l-60,100.07a12.5,12.5,0,0,1-21.44-12.86l63-105a12.5,12.5,0,0,1,8.63-5.89L466,657.55a30,30,0,0,1-3.87-1.67c-10-5.4-38.91-8.64-43.36-11.88-3.74-2.73-13.78-16.91-22.17-22H31V972H972V622Z" transform="translate(-31 -51)"/></g><g id="Layer_3" data-name="Layer 3"><path class="cls-1" d="M410.41,252.8c11.76,9.14-9.41,19.43,16.47,20.57S465.7,260.8,481,269.94s18.82-13.71,18.82-13.71-10.59,22.85,0,50.28S528,265.37,528,265.37s-11.76,44.56-4.71,54.85,27.06-22.85,32.94-48,34.12,25.14,34.12,25.14,35.29,1.14,43.53,5.71,16.47,24,18.82,10.28-2.35-11.43-11.76-48-35.29-37.71-35.29-41.14,78.82,33.14,96.46,41.14,60,12.57,32.94,0-2.35-11.43-17.65-29.71,28.23-24,36.47-32,16.47-18.28-11.76-26.28S570.4,172.81,568,172.81s-136.46,36.57-136.46,36.57l-41.17,4.57s-11.76,14.85-15.29,25.14,43.53,0,43.53,0Z" transform="translate(-31 -51)"/><path class="cls-1" d="M476.4,619.08s-29.94-21.88-28.66-30.91c0,0-11.71-6.43-13-23.2,0,0-19.52-6.42-22.15-25.76,0,0-7.8,1.3-23.44-21.89,0,0-27.31-2.54-26.05-28.34,0,0-54.73-77.31-161.32-46.2,0,0,10.51,73.5,109.38,97.86,0,0,20.8-2.61,28.62,9,0,0,15.6-6.47,29.94,20.59,0,0,31.22,5.12,39.06,30.9,0,0,16.92,10.29,27.35,25.76,3.64,5.39,34.9,6,39.9,4S476.4,619.08,476.4,619.08Z" transform="translate(-31 -51)"/><path class="cls-1" d="M483,628.95s-7.12-50.84-17.72-73.88S446.39,492,446.39,492c-4,4-12.76-45.45-12.76-45.45-10.88-7.17-16.17-24.93-19-32.89-8.56-24.16,8.69-80.72-123.76-139.58,0,0-30.86,79.7,72.51,179.29,0,0,27.55,3.33,45.41,67,0,0,19.47,10.36,24.62,40.3,0,0,20.74,14.9,21.29,36.87L479,633.8Z" transform="translate(-31 -51)"/><path class="cls-1" d="M517.46,636.74s3.53-23.32,38.82-29.46c0,0,4.71-35.6,28.23-29.46,0,0-5.88-33.14,29.41-30.69,0,0,4.71-30.69,32.94-19.64,0,0,3.53-18.41,38.82-16,0,0,75.29,4.91,110.58-16,0,0-77.64-62.6-165.87-27,0,0-17.65,12.28-28.23,13.5,0,0-10.59,20.87-28.23,29.46,0,0-9.41,19.64-20,23.32,0,0-16.47,34.37-25.88,35.6S517.46,636.74,517.46,636.74Z" transform="translate(-31 -51)"/></g><g id="Layer_6" data-name="Layer 6"><path class="cls-1" d="M556.28,265.37S542.17,477.91,530.4,517.9,478.64,607,469.23,617.31s2.35,16,10.59,19.43,20,4.57,27.06-2.29S568,537.32,573.93,360.21s16.47-120,16.47-120Z" transform="translate(-31 -51)"/><path class="cls-1" d="M475,623.12S357.47,498.47,288.06,489.33c0,0,82.35,41.14,157.64,128a72,72,0,0,0,5.79,5.07c4.15,3.24,18.51,8.51,18.51,8.51Z" transform="translate(-31 -51)"/><path class="cls-1" d="M491,631.86s-73.37-210.58-148.78-301L480.74,635.26Z" transform="translate(-31 -51)"/><path class="cls-1" d="M506,633.7S586.38,435.46,727.2,484c0,0-106.59-47.37-201.53,150.84C525.67,634.85,514.51,648.13,506,633.7Z" transform="translate(-31 -51)"/><path class="cls-1" d="M454.31,631.29s49.12,22,68.79,5.73c15.57-12.87-83.1-22.14-83.1-22.14S453.24,629,454.31,631.29Z" transform="translate(-31 -51)"/></g><g id="Layer_2" data-name="Layer 2"><path class="cls-1" d="M506.87,229.95s-68.23,8-32.94,101.7c0,0,7.06,9.14,28.23-5.71,0,0-41.17-53.71,9.41-86.84,0,0,35.29-5.71,14.12,58.28,0,0,7.06,10.28,16.47-5.71s7.06-21.71,7.06-21.71,2.35,51.42,30.59,89.13c0,0,2.35-10.28,21.18-2.29,0,0,0-20.57-12.94-59.42s-3.53-26.28-3.53-26.28,15.29,83.41,47.06,97.13c0,0,3.53-11.43,20-9.14,0,0-17.65-49.13-17.65-66.27s-22.35-44.56-30.59-51.42,28.23-10.28,97.64,76.56c0,0-10.59-8,23.53,3.43,0,0-10.59-56-38.82-65.13-8.23-2.29,7.06-1.14,16.47,0s9.41-21.71,9.41-21.71,12.94,1.14,21.18,5.71a9.93,9.93,0,0,0,5.88,10.28c7.06,3.43,34.12-5.71,48.23,19.43,0,0-2.35-17.14,8.23-21.71s-9.41-21.71-16.47-24-17.65-20.57-24.7-20.57c-3.53,0,2.35-20.57-22.35-20.57s25.29-9.71,32.94-6.86c15.29,5.71,11.76,9.14,15.29,5.71s-1.18-46.85-62.35-42.28c-17.65,0-29.41,0-21.18-4.57s37.64-11.43,43.53-10.28-12.94-22.85-49.41-5.71c0,0-14.12-1.14-25.88,4.57,0,0,7.06-18.28-9.41-14.85s22.35-20.57,17.65-34.28S659.8,57.4,662.16,52.83,653.92,51.69,630.39,78s-20,19.43-23.53,16,8.23-13.71,12.94-14.85,2.35-6.86-5.88-4.57,3.53-10.28-29.41-10.28c-11.76,2.29-10.59,28.57-10.59,35.42h-9.41s0-26.28,7.06-28.57-12.94,3.43-20-1.14-9.41,24-5.88,32S542.17,89.4,530.4,88.26,521,86,513.93,89.4s-11.76-34.28-10.59-37.71S499.82,58.55,488.05,62s-8.23,12.57-8.23,12.57l15.29,38.85s-18.82-17.14-25.88-17.14S441,76.83,435.11,78s-17.65,17.14-23.53,18.28,15.29,2.29,30.59,12.57A232.12,232.12,0,0,0,472.76,126s-20-9.14-27.06-9.14-42.35-13.71-61.17,9.14c0,0,21.18-4.57,47.06,6.86S449.23,142,449.23,142s-20-11.43-30.59-6.86-50.58,4.57-58.82,21.71c0,0,0,2.29,17.65-4.57s28.23-8,45.88-4.57-55.29,8-61.17,18.28-11.76,17.14-10.59,24-18.82,17.14-22.35,19.43,7.06,3.43,7.06,19.43c0,0,28.23-14.85,38.82-16s-22.35,11.43-24.7,18.28,0,16,4.71,26.28c0,0,1.18-26.28,21.18-28.57s25.88-2.29,25.88-2.29-38.82,32-32.94,69.7c0,0,49.41-65.13,72.94-62.85,0,0,12.94-4.57,15.29-2.29s-7.06,5.71-8.23,11.43-41.17,45.71-22.35,83.41A15.2,15.2,0,0,1,441,327.07c7.06,4.57,18.82-43.42,18.82-43.42S475,246.35,506.87,229.95Z" transform="translate(-31 -51)"/></g><g id="Layer_4" data-name="Layer 4"><path class="cls-1" d="M429.23,196.81s55.29-9.14,56.47-6.86-15.62,12.23-22.35,19.43c-10.87,11.61.54,10.62,16.12,6.39,7.4-2,13.29-13.24,30.94-19s11.29,5.1,11.76,5.71c3.53,4.57-7.06,12.57-3.53,17.14s16.47,3.43,22.35-4.57c2-2.66,2.35-26.28,5.88-21.71,15.29,3.43,11.76,28.57,32.94,22.85s0-17.14,4.71-22.85,12.94-5.71,23.53,2.29c5.29,4,12.94,13.71,18.82,13.71,15.29-2.29,28.23-9.14,12.94-14.85s-4.71-16-4.71-16,1.18,4.57,21.18-4.57,18.82-13.71,23.53-16,3.53-11.43-14.12-10.28S652.75,154.53,641,158s-9.41-2.29-1.18-8c6.38-12.39,15.29-26.28,20-26.28s-6-5.38-9.41-6.86c-4.83-2.09-20,6.86-23.53,18.28s-16.47,8-16.47,8,14.12-11.43,16.47-24,0-27.42-10.59-19.43-12.94,30.85-21.18,29.71-1.18-22.85-1.18-22.85S598.63,94,595.1,91.68s-15.29-2.29-17.65,0,4.71,20.57,3.53,25.14-10.59,22.85-12.94,8S568,94,552.75,97.4c0,0,7.06,3.43,4.71,25.14s-14.12-24-20-24-17.65,9.14-14.12,14.85c0,0,14.12,10.28,14.12,24S511.58,110,511.58,110s-8.23-3.43-10.59,2.29-12.94,13.71-4.71,16,14.12,10.28,12.94,14.85-17.65-3.43-18.82-3.43-18.82-12.57-21.18-9.14-20,14.85-8.23,20.57,24.7,4.57,25.88,10.28-52.94-20.57-51.76,4.57c0,0,28.23,4.57,35.29,11.43s-64.7,1.14-52.94,12.57S429.23,196.81,429.23,196.81Z" transform="translate(-31 -51)"/></g></svg>